<svg width="30" height="30" viewBox="0 0 30 30" fill="none" xmlns="http://www.w3.org/2000/svg">
<circle cx="15" cy="15" r="12" fill="white"/>
<path d="M15 0C12.9268 0 10.9807 0.391654 9.16159 1.17497C7.34247 1.95829 5.75712 3.02644 4.40549 4.37945C3.05385 5.73246 1.98171 7.31942 1.18902 9.14039C0.396338 10.9614 0 12.9094 0 14.9847C0 17.06 0.396338 19.0081 1.18902 20.8291C1.98171 22.6501 3.05385 24.237 4.40549 25.59C5.75712 26.943 7.34247 28.0163 9.16159 28.8098C10.9807 29.6033 12.9268 30 15 30C17.0732 30 19.0193 29.6033 20.8384 28.8098C22.6575 28.0163 24.2429 26.943 25.5945 25.59C26.9461 24.237 28.0183 22.6501 28.811 20.8291C29.6037 19.0081 30 17.06 30 14.9847C30 12.9094 29.6037 10.9614 28.811 9.14039C28.0183 7.31942 26.9461 5.73246 25.5945 4.37945C24.2429 3.02644 22.6575 1.95829 20.8384 1.17497C19.0193 0.391654 17.0732 0 15 0ZM18.5366 10.3459H16.311C16.1687 10.3459 16.0366 10.4273 15.9146 10.59C15.7927 10.7528 15.7317 10.9461 15.7317 11.1699V12.8179H18.5366L18.1402 15.1373H15.7317V22.0956H13.0793V15.1373H10.6707V12.8179H13.0793V11.4446C13.0793 10.468 13.3841 9.62869 13.9939 8.92675C14.6037 8.22482 15.376 7.87386 16.311 7.87386H18.5366V10.3459Z" fill="#667DAE"/>
</svg>