<svg xmlns="http://www.w3.org/2000/svg" width="35" height="36" viewBox="0 0 35 36" fill="none">
<rect y="0.612915" width="35" height="35.0806" rx="17.5" fill="url(#paint0_linear)"/>
<path d="M28.1848 22.3437C28.1848 24.1709 27.5579 25.7125 26.3041 26.9686C25.0502 28.2248 23.5115 28.8528 21.6877 28.8528H12.7971C11.0189 28.8528 9.51437 28.2362 8.28335 27.0029C7.05233 25.7696 6.39124 24.2622 6.30005 22.4808V13.2995C6.34564 11.5181 7.00674 10.0107 8.28335 8.77739C9.55997 7.54407 11.0645 6.92743 12.7971 6.92743H21.6877C23.5115 6.92743 25.0502 7.55549 26.3041 8.81164C27.5579 10.0678 28.1848 11.6094 28.1848 13.4365V22.3437ZM21.6877 9.11997H12.7971C11.6116 9.11997 10.5972 9.54249 9.75373 10.3875C8.91025 11.2326 8.48852 12.2489 8.48852 13.4365V22.3437C8.48852 23.5314 8.91025 24.5477 9.75373 25.3927C10.5972 26.2378 11.6116 26.6603 12.7971 26.6603H21.6877C22.8732 26.6603 23.8876 26.2378 24.7311 25.3927C25.5746 24.5477 25.9963 23.5314 25.9963 22.3437V13.4365C25.9963 12.2946 25.5632 11.2897 24.6969 10.4218C23.8306 9.55391 22.8276 9.11997 21.6877 9.11997ZM21.551 22.2067C20.4111 23.3486 19.0661 23.9196 17.516 23.9196C15.9658 23.9196 14.6208 23.3486 13.481 22.2067C12.3411 21.0647 11.7712 19.7173 11.7712 18.1642C11.7712 16.6111 12.3411 15.2637 13.481 14.1217C14.6208 12.9797 15.9658 12.4088 17.516 12.4088C19.0661 12.4088 20.4111 12.9797 21.551 14.1217C22.6908 15.2637 23.2607 16.6111 23.2607 18.1642C23.2607 19.7173 22.6908 21.0647 21.551 22.2067ZM23.9446 13.0939C23.671 13.368 23.3519 13.5051 22.9872 13.5051C22.6224 13.5051 22.3033 13.368 22.0297 13.0939C21.7561 12.8199 21.6194 12.5001 21.6194 12.1347C21.6194 11.7693 21.7561 11.4495 22.0297 11.1755C22.3033 10.9014 22.6224 10.7644 22.9872 10.7644C23.3519 10.7644 23.671 10.9014 23.9446 11.1755C24.2182 11.4495 24.3549 11.7693 24.3549 12.1347C24.3549 12.5001 24.2182 12.8199 23.9446 13.0939ZM19.978 15.6976C19.2941 15.0124 18.4734 14.6698 17.516 14.6698C16.5585 14.6698 15.7378 15.0124 15.0539 15.6976C14.37 16.3828 14.0281 17.205 14.0281 18.1642C14.0281 19.1234 14.37 19.9456 15.0539 20.6308C15.7378 21.316 16.5585 21.6586 17.516 21.6586C18.4734 21.6586 19.2941 21.316 19.978 20.6308C20.6619 19.9456 21.0038 19.1234 21.0038 18.1642C21.0038 17.205 20.6619 16.3828 19.978 15.6976Z" fill="white"/>
<defs>
<linearGradient id="paint0_linear" x1="-16.4815" y1="0.612918" x2="44.8152" y2="6.40667" gradientUnits="userSpaceOnUse">
<stop stop-color="#FEDA75"/>
<stop offset="0.226519" stop-color="#FA7E1E"/>
<stop offset="0.497238" stop-color="#D62976"/>
<stop offset="0.707182" stop-color="#962FBF"/>
<stop offset="1" stop-color="#4F5BD5"/>
</linearGradient>
</defs>
</svg>