<svg xmlns="http://www.w3.org/2000/svg" viewBox="0 0 152.58 152"><g data-name="Слой 2"><g data-name="Слой 1"><path fill="#09f" d="M71.63 0v23H24v48.63H0V0h71.63z"/><path fill="#ffb4c4" d="M152.58 0v71.63h-25V23H80.95V0h71.63z"/><path fill="#ffda53" d="M152.58 80.37V152H80.95v-25.42h46.63V80.37h25z"/><path fill="#ffa300" d="M71.63 126.58V152H0V80.37h24v46.21h47.63z"/><path d="M52.84 56l-2.62 2.76a3.53 3.53 0 00-1.35-1.06 3.91 3.91 0 00-1.67-.41 3.3 3.3 0 00-1.67.4 1.38 1.38 0 00-.71 1.31 1.42 1.42 0 00.17.7 1.41 1.41 0 00.57.53 7.09 7.09 0 00.78.39c.25.1.62.22 1.1.37s1.11.37 1.46.5a10.19 10.19 0 011.36.64 4.86 4.86 0 011.28.92 4.41 4.41 0 01.82 1.29 4.23 4.23 0 01.36 1.76 5 5 0 01-1.88 4.21 7.34 7.34 0 01-4.62 1.45 10 10 0 01-3.56-.64 7.69 7.69 0 01-2.8-1.8l2.68-2.74a4.8 4.8 0 001.65 1.3 4.6 4.6 0 002 .5 3 3 0 001.69-.44 1.59 1.59 0 00.66-1.41 1.3 1.3 0 00-.18-.68 2.32 2.32 0 00-.4-.51 2.9 2.9 0 00-.77-.44c-.36-.16-.68-.28-.93-.37L45 64.09a13.73 13.73 0 01-1.61-.65 6.92 6.92 0 01-1.34-.89 3.59 3.59 0 01-1-1.39 4.9 4.9 0 01-.36-1.94 5.09 5.09 0 01.57-2.42 4.54 4.54 0 011.54-1.68 7.93 7.93 0 012.1-.92 8.8 8.8 0 015.35.23A7.29 7.29 0 0152.84 56zm6.72 15.31h-4.13v-17h4.13zm22.92 0h-4l.1-12h-.08l-4.42 12H71.2l-4.3-12h-.07l.1 12h-3.87v-17h5.84l3.86 10.9h.1l3.69-10.9h5.93zm16.39-11.76a4.9 4.9 0 01-1 3.12 5.16 5.16 0 01-2.42 1.74 10.41 10.41 0 01-3.35.49h-2v6.41H86v-17h6.24a8.41 8.41 0 014.84 1.24 4.47 4.47 0 011.79 4zm-4.1 0q0-1.95-2.88-1.95h-1.8v4h1.73c1.96.04 2.95-.6 2.95-2.02zm17.28 11.76h-10.71v-17h4.13v13.43h6.58zM55.62 85.17H50v15.74h-4.76V85.17h-5.6v-4.08h16zm16.02 15.74H57.81V81.09h13.33v4.06h-8.71v3.72h8.23v3.84h-8.23v4.11h9.21zm20.61-2.74a9.66 9.66 0 01-7.7 3.27 10.57 10.57 0 01-7.65-2.92 10.06 10.06 0 01-3-7.55 9.85 9.85 0 013.1-7.55 10.8 10.8 0 017.68-2.87 11.61 11.61 0 014.19.78 7.86 7.86 0 013.23 2.14l-3.3 3.24a4.06 4.06 0 00-1.72-1.35 5.7 5.7 0 00-2.28-.46 5.35 5.35 0 00-4.1 1.72A6.08 6.08 0 0079.09 91a6.18 6.18 0 001.57 4.38 5.26 5.26 0 004.06 1.7 4.83 4.83 0 004.2-2zm19.35 2.74h-4.79v-8.29h-7.73v8.29h-4.79V81.09h4.79v7.5h7.73v-7.5h4.79z"/></g></g></svg>