<svg xmlns="http://www.w3.org/2000/svg" width="30" height="30" viewBox="0 0 30 30" fill="none">
<circle cx="15" cy="15" r="12" fill="white"/>
<path d="M15 0C12.9268 0 10.9807 0.391654 9.16159 1.17497C7.34247 1.95829 5.75712 3.02644 4.40549 4.37945C3.05385 5.73246 1.98171 7.31942 1.18902 9.14039C0.396338 10.9614 0 12.9094 0 14.9847C0 17.06 0.396338 19.0081 1.18902 20.8291C1.98171 22.6501 3.05385 24.237 4.40549 25.59C5.75712 26.943 7.34247 28.0163 9.16159 28.8098C10.9807 29.6033 12.9268 30 15 30C17.0732 30 19.0193 29.6033 20.8384 28.8098C22.6575 28.0163 24.2429 26.943 25.5945 25.59C26.9461 24.237 28.0183 22.6501 28.811 20.8291C29.6037 19.0081 30 17.06 30 14.9847C30 12.9094 29.6037 10.9614 28.811 9.14039C28.0183 7.31942 26.9461 5.73246 25.5945 4.37945C24.2429 3.02644 22.6575 1.95829 20.8384 1.17497C19.0193 0.391654 17.0732 0 15 0ZM20.7622 16.9074C20.7622 16.9074 20.9959 17.1516 21.4634 17.6399C21.9309 18.1282 22.2459 18.5249 22.4085 18.8301C22.4085 18.8301 22.4136 18.8352 22.4238 18.8454C22.4339 18.8555 22.439 18.8606 22.439 18.8606C22.5 18.9827 22.5406 19.0844 22.561 19.1658C22.5813 19.2472 22.5711 19.3184 22.5305 19.3795C22.4695 19.5015 22.3679 19.588 22.2256 19.6389C22.0833 19.6897 21.9817 19.7152 21.9207 19.7152C21.9207 19.7152 21.5396 19.7152 20.7774 19.7152C20.0152 19.7152 19.6138 19.7152 19.5732 19.7152C19.4919 19.7152 19.3699 19.6948 19.2073 19.6541C19.0447 19.6134 18.8618 19.5219 18.6585 19.3795C18.4959 19.2777 18.3384 19.1404 18.186 18.9674C18.0335 18.7945 17.876 18.6267 17.7134 18.4639C17.4898 18.1994 17.2764 17.9654 17.0732 17.762C16.8699 17.5585 16.6768 17.4568 16.4939 17.4568C16.4533 17.4568 16.4228 17.4619 16.4024 17.472C16.3821 17.4822 16.3618 17.4873 16.3415 17.4873C16.1789 17.5483 16.0213 17.7009 15.8689 17.9451C15.7165 18.1892 15.6402 18.5961 15.6402 19.1658C15.6402 19.3489 15.5894 19.4863 15.4878 19.5778C15.3862 19.6694 15.2846 19.7152 15.1829 19.7152C15.1829 19.7152 15.0102 19.7152 14.6646 19.7152C14.3191 19.7152 14.1362 19.7152 14.1159 19.7152C13.9329 19.7152 13.435 19.6185 12.622 19.4252C11.8089 19.2319 10.9858 18.6979 10.1524 17.823C9.62398 17.2736 9.12602 16.6226 8.65854 15.8698C8.19105 15.117 7.77439 14.3998 7.40854 13.7182C7.04268 13.0366 6.75305 12.4517 6.53963 11.9634C6.32622 11.4751 6.21951 11.2309 6.21951 11.2309C6.15854 11.0885 6.17378 10.9766 6.26524 10.8952C6.35671 10.8138 6.46341 10.7731 6.58537 10.7731H8.96341C9.12602 10.7731 9.2378 10.8138 9.29878 10.8952C9.35976 10.9766 9.41057 11.058 9.45122 11.1394C9.49187 11.2411 9.58841 11.47 9.74085 11.826C9.89329 12.1821 10.1016 12.5839 10.3659 13.0315C10.7724 13.7436 11.1077 14.2574 11.372 14.5727C11.6362 14.8881 11.8699 15.0458 12.0732 15.0458C12.1138 15.0458 12.1545 15.0407 12.1951 15.0305C12.2358 15.0203 12.2764 15.0153 12.3171 15.0153C12.5813 14.8525 12.7134 14.4303 12.7134 13.7487C12.7134 13.0671 12.7134 12.6246 12.7134 12.4212C12.7134 12.4008 12.7033 12.2431 12.6829 11.9481C12.6626 11.6531 12.5813 11.414 12.439 11.2309C12.3374 11.0885 12.2154 10.9868 12.0732 10.9257C11.9309 10.8647 11.8089 10.824 11.7073 10.8037C11.7276 10.7833 11.7683 10.7426 11.8293 10.6816C11.8902 10.6205 11.9512 10.5799 12.0122 10.5595C12.1951 10.4578 12.439 10.3967 12.7439 10.3764C13.0488 10.3561 13.3638 10.3459 13.689 10.3459H14.0549C14.4004 10.3459 14.6443 10.3561 14.7866 10.3764C14.9289 10.3967 15.061 10.4273 15.1829 10.468C15.4472 10.529 15.5996 10.6663 15.6402 10.88C15.6809 11.0936 15.6911 11.4852 15.6707 12.0549C15.6707 12.2177 15.6656 12.3906 15.6555 12.5738C15.6453 12.7569 15.6402 12.9603 15.6402 13.1841C15.6402 13.2248 15.6402 13.2706 15.6402 13.3215C15.6402 13.3723 15.6402 13.4283 15.6402 13.4893C15.6199 13.7742 15.625 14.059 15.6555 14.3438C15.686 14.6287 15.8028 14.8423 16.0061 14.9847C16.0264 15.0051 16.0518 15.0203 16.0823 15.0305C16.1128 15.0407 16.1484 15.0458 16.189 15.0458C16.25 15.0458 16.4075 14.9593 16.6616 14.7864C16.9157 14.6134 17.3374 14.0387 17.9268 13.0621C18.1707 12.6144 18.3791 12.177 18.5518 11.7497C18.7246 11.3225 18.8211 11.0885 18.8415 11.0478C18.8618 11.0275 18.8872 10.9969 18.9177 10.9563C18.9482 10.9156 18.9837 10.8749 19.0244 10.8342C19.0447 10.8138 19.0752 10.8037 19.1159 10.8037C19.1565 10.8037 19.187 10.8037 19.2073 10.8037H21.9817C22.1443 10.8037 22.2713 10.8138 22.3628 10.8342C22.4543 10.8545 22.5102 10.8952 22.5305 10.9563C22.5711 11.058 22.5254 11.2818 22.3933 11.6277C22.2612 11.9736 21.8801 12.5737 21.25 13.4283C21.1484 13.5707 21.0518 13.7029 20.9604 13.825C20.8689 13.9471 20.7825 14.0692 20.7012 14.1913C20.1118 14.9441 19.8222 15.4425 19.8323 15.6867C19.8425 15.9308 20.1524 16.3377 20.7622 16.9074Z" fill="#4A76A8"/>
</svg>