<svg xmlns="http://www.w3.org/2000/svg" viewBox="0 0 152.58 152"><defs><style>.cls-1{fill:#09f;}.cls-2{fill:#ffb4c4;}.cls-3{fill:#ffda53;}.cls-4{fill:#ffa300;}</style></defs><title>Ресурс 2</title><g id="Слой_2" data-name="Слой 2"><g id="Слой_1-2" data-name="Слой 1"><polygon class="cls-1" points="71.63 0 71.63 23 24 23 24 71.63 0 71.63 0 0 71.63 0"/><polygon class="cls-2" points="152.58 0 152.58 71.63 127.58 71.63 127.58 23 80.95 23 80.95 0 152.58 0"/><polygon class="cls-3" points="152.58 80.37 152.58 152 80.95 152 80.95 126.58 127.58 126.58 127.58 80.37 152.58 80.37"/><polygon class="cls-4" points="71.63 126.58 71.63 152 0 152 0 80.37 24 80.37 24 126.58 71.63 126.58"/><path d="M52.84,56l-2.62,2.76a3.53,3.53,0,0,0-1.35-1.06,3.91,3.91,0,0,0-1.67-.41,3.3,3.3,0,0,0-1.67.4A1.38,1.38,0,0,0,44.82,59a1.42,1.42,0,0,0,.17.7,1.41,1.41,0,0,0,.57.53,7.09,7.09,0,0,0,.78.39c.25.1.62.22,1.1.37s1.11.37,1.46.5a10.19,10.19,0,0,1,1.36.64,4.86,4.86,0,0,1,1.28.92,4.41,4.41,0,0,1,.82,1.29,4.23,4.23,0,0,1,.36,1.76,5,5,0,0,1-1.88,4.21,7.34,7.34,0,0,1-4.62,1.45,10,10,0,0,1-3.56-.64,7.69,7.69,0,0,1-2.8-1.8l2.68-2.74a4.8,4.8,0,0,0,1.65,1.3,4.6,4.6,0,0,0,2,.5,3,3,0,0,0,1.69-.44,1.59,1.59,0,0,0,.66-1.41,1.3,1.3,0,0,0-.18-.68,2.32,2.32,0,0,0-.4-.51,2.9,2.9,0,0,0-.77-.44c-.36-.16-.68-.28-.93-.37L45,64.09a13.73,13.73,0,0,1-1.61-.65,6.92,6.92,0,0,1-1.34-.89,3.59,3.59,0,0,1-1-1.39,4.9,4.9,0,0,1-.36-1.94,5.09,5.09,0,0,1,.57-2.42,4.54,4.54,0,0,1,1.54-1.68,7.93,7.93,0,0,1,2.1-.92,8.8,8.8,0,0,1,5.35.23A7.29,7.29,0,0,1,52.84,56Z"/><path d="M59.56,71.31H55.43v-17h4.13Z"/><path d="M82.48,71.31h-4l.1-12H78.5l-4.42,12H71.2l-4.3-12h-.07l.1,12H63.06v-17H68.9l3.86,10.9h.1l3.69-10.9h5.93Z"/><path d="M98.87,59.55a4.9,4.9,0,0,1-1,3.12,5.16,5.16,0,0,1-2.42,1.74,10.41,10.41,0,0,1-3.35.49h-2v6.41H86v-17h6.24a8.41,8.41,0,0,1,4.84,1.24A4.47,4.47,0,0,1,98.87,59.55Zm-4.1,0q0-1.95-2.88-1.95h-1.8v4h1.73C93.78,61.64,94.77,61,94.77,59.58Z"/><path d="M112.05,71.31H101.34v-17h4.13V67.74h6.58Z"/><path d="M55.62,85.17H50v15.74H45.24V85.17h-5.6V81.09h16Z"/><path d="M71.64,100.91H57.81V81.09H71.14v4.06H62.43v3.72h8.23v3.84H62.43v4.11h9.21Z"/><path d="M92.25,98.17a9.66,9.66,0,0,1-7.7,3.27,10.57,10.57,0,0,1-7.65-2.92,10.06,10.06,0,0,1-3-7.55A9.85,9.85,0,0,1,77,83.42a10.8,10.8,0,0,1,7.68-2.87,11.61,11.61,0,0,1,4.19.78,7.86,7.86,0,0,1,3.23,2.14L88.8,86.71a4.06,4.06,0,0,0-1.72-1.35,5.7,5.7,0,0,0-2.28-.46,5.35,5.35,0,0,0-4.1,1.72A6.08,6.08,0,0,0,79.09,91a6.18,6.18,0,0,0,1.57,4.38,5.26,5.26,0,0,0,4.06,1.7,4.83,4.83,0,0,0,4.2-2Z"/><path d="M111.6,100.91h-4.79V92.62H99.08v8.29H94.29V81.09h4.79v7.5h7.73v-7.5h4.79Z"/></g></g></svg>